# xmcd CD database file
#
# Track frame offsets:
#	150
#	33024
#	71652
#	102750
#	136259
#	170514
#	191692
#	229505
#	242972
#	269129
#
# Disc length: 3862 seconds
#
# Revision: 0
# Processed by: cddbd v1.5.2PL0 Copyright (c) Steve Scherf et al.
# Submitted via: CDex 1.51
#
DISCID=890f140a
DTITLE=Fly - Fly
DYEAR=2004
DGENRE=Jazz
TTITLE0=child's play
TTITLE1=fly mr. freakjar
TTITLE2=stark
TTITLE3=jj
TTITLE4=state of the union
TTITLE5=emergence - resurgence
TTITLE6=todas las cosas se van
TTITLE7=piano tune
TTITLE8=spanish castle magic
TTITLE9=lone
EXTD=YEAR: 2004
EXTT0=
EXTT1=
EXTT2=
EXTT3=
EXTT4=
EXTT5=
EXTT6=
EXTT7=
EXTT8=
EXTT9=
PLAYORDER=
